<?xml version="1.0" encoding="UTF-8"?>
<svg id="Layer_2" data-name="Layer 2" xmlns="http://www.w3.org/2000/svg" xmlns:xlink="http://www.w3.org/1999/xlink" viewBox="0 0 116.76 116.28">
  <defs>
    <style>
      .cls-1 {
        fill: url(#linear-gradient);
        stroke: #0f0f0f;
        stroke-miterlimit: 10;
        stroke-width: 6px;
      }
    </style>
    <linearGradient id="linear-gradient" x1="18.66" y1="97.86" x2="98.1" y2="18.42" gradientUnits="userSpaceOnUse">
      <stop offset="0" stop-color="#c354ff"/>
      <stop offset=".5" stop-color="#6a7ff6"/>
      <stop offset="1" stop-color="#5cffc0"/>
    </linearGradient>
  </defs>
  <g id="Layer_2-2" data-name="Layer 2">
    <path class="cls-1" d="M58.13,12.09v.9c0,4.38-3.14,8.05-7.43,8.92-14.45,2.95-25.83,14.34-28.78,28.79-.88,4.29-4.54,7.43-8.92,7.43h-.9c-5.68,0-10.01-5.17-8.92-10.75C7.5,25.08,25.08,7.5,47.38,3.17c5.58-1.08,10.75,3.24,10.75,8.92ZM50.7,94.36c-14.45-2.95-25.83-14.34-28.78-28.79-.88-4.29-4.54-7.43-8.92-7.43h-.9c-5.68,0-10.01,5.17-8.92,10.75,4.34,22.3,21.91,39.89,44.22,44.22,5.58,1.08,10.75-3.24,10.75-8.92v-.9c0-4.38-3.14-8.05-7.43-8.92ZM69.37,113.11c22.3-4.34,39.88-21.92,44.22-44.23,1.08-5.58-3.24-10.75-8.92-10.75h-.9c-4.38,0-8.05,3.14-8.92,7.43-2.95,14.45-14.33,25.84-28.78,28.79-4.29.88-7.43,4.55-7.43,8.92v.9c0,5.68,5.17,10.01,10.75,8.92ZM66.06,21.91c14.45,2.95,25.83,14.34,28.78,28.79.88,4.29,4.54,7.43,8.92,7.43h.9c5.68,0,10.01-5.17,8.92-10.75-4.34-22.3-21.91-39.89-44.22-44.22-5.58-1.08-10.75,3.24-10.75,8.92v.9c0,4.38,3.14,8.05,7.43,8.92Z"/>
  </g>
</svg>